<svg xmlns="http://www.w3.org/2000/svg" width="82" height="74" viewBox="0 0 82 74" fill="none"><path d="M41.0686 25.3901C34.0665 25.3901 28.3735 19.6971 28.3735 12.6951C28.3735 5.69299 34.0665 0 41.0686 0C48.0707 0 53.7637 5.69299 53.7637 12.6951C53.7637 19.6971 48.0707 25.3901 41.0686 25.3901ZM41.0686 3.50104C36.0149 3.50104 31.905 7.61095 31.905 12.6646C31.905 17.7183 36.0149 21.8282 41.0686 21.8282C46.1223 21.8282 50.2322 17.7183 50.2322 12.6646C50.2322 7.61095 46.1223 3.50104 41.0686 3.50104Z" fill="#0083BA"></path><path d="M41.0683 36.1671C39.3939 36.1671 38.0239 34.7971 38.0239 33.1227V18.2053C38.0239 16.5309 39.3939 15.1609 41.0683 15.1609C42.7427 15.1609 44.1127 16.5309 44.1127 18.2053V33.1227C44.1127 34.7971 42.7427 36.1671 41.0683 36.1671Z" fill="#00ACBD"></path><path d="M62.8661 61.253C62.3181 61.253 61.7701 61.1007 61.2526 60.7963L48.588 52.9114C47.1571 52.0285 46.7309 50.141 47.6138 48.7406C48.4966 47.3097 50.3842 46.8835 51.7846 47.7664L64.4492 55.6513C65.88 56.5342 66.3062 58.4217 65.4234 59.8221C64.8754 60.7354 63.8707 61.253 62.8661 61.253Z" fill="#00ACBD"></path><path d="M18.6009 61.5877C17.5963 61.5877 16.5916 61.0701 16.0132 60.1568C15.1303 58.726 15.5565 56.8689 16.9874 55.986L29.652 48.1011C31.0829 47.2182 32.9399 47.6444 33.8228 49.0753C34.7057 50.5061 34.2795 52.3632 32.8486 53.2461L20.184 61.131C19.7273 61.4355 19.1489 61.5877 18.6009 61.5877Z" fill="#00ACBD"></path><path d="M12.6951 73.9783C5.69299 73.9783 0 68.2853 0 61.2832C0 54.2811 5.69299 48.5881 12.6951 48.5881C19.6971 48.5881 25.3901 54.2811 25.3901 61.2832C25.4206 68.2853 19.7276 73.9783 12.6951 73.9783ZM12.6951 52.0892C7.64139 52.0892 3.53148 56.1991 3.53148 61.2528C3.53148 66.3064 7.64139 70.4163 12.6951 70.4163C17.7487 70.4163 21.8586 66.3064 21.8586 61.2528C21.8586 56.1991 17.7487 52.0892 12.6951 52.0892Z" fill="#0083BA"></path><path d="M68.9856 73.9783C61.9835 73.9783 56.2905 68.2853 56.2905 61.2832C56.2905 54.2811 61.9835 48.5881 68.9856 48.5881C75.9877 48.5881 81.6806 54.2811 81.6806 61.2832C81.7111 68.2853 75.9877 73.9783 68.9856 73.9783ZM68.9856 52.0892C63.9319 52.0892 59.822 56.1991 59.822 61.2528C59.822 66.3064 63.9319 70.4163 68.9856 70.4163C74.0393 70.4163 78.1492 66.3064 78.1492 61.2528C78.1492 56.1991 74.0393 52.0892 68.9856 52.0892Z" fill="#0083BA"></path><path d="M27.0035 45.3611C27.0035 39.6377 30.4436 34.584 35.7713 32.4834C36.6846 32.1181 37.1413 31.083 36.7759 30.2001C36.4106 29.2868 35.3755 28.8301 34.4927 29.1955C27.8255 31.8441 23.5024 38.1764 23.5024 45.3611C23.5024 46.1526 23.5633 46.9442 23.6547 47.7357C23.7764 48.6186 24.5375 49.2579 25.4204 49.2579C25.5117 49.2579 25.5726 49.2579 25.664 49.2275C26.6382 49.1057 27.3079 48.1924 27.1861 47.2182C27.0644 46.6397 27.0035 46.0004 27.0035 45.3611Z" fill="#00ACBD"></path><path d="M49.1667 56.4427C46.7616 58.2693 43.8695 59.2131 40.8555 59.2131C37.6894 59.2131 34.6755 58.178 32.2095 56.1687C31.4484 55.5598 30.322 55.6816 29.7131 56.4427C29.1042 57.2038 29.226 58.3302 29.9871 58.9391C33.0619 61.405 36.8978 62.7445 40.8555 62.7445C44.661 62.7445 48.2838 61.5268 51.2978 59.2435C52.0893 58.6651 52.2415 57.5386 51.6327 56.7776C51.0542 55.986 49.9582 55.8338 49.1667 56.4427Z" fill="#00ACBD"></path><path d="M47.7054 29.4087C46.792 29.013 45.757 29.4392 45.3916 30.322C44.9959 31.2354 45.4221 32.2704 46.305 32.6358C51.3891 34.8277 54.677 39.8205 54.677 45.3613C54.677 45.7875 54.6466 46.1833 54.6161 46.6095C54.5248 47.5837 55.2554 48.4361 56.2296 48.5274C56.2905 48.5274 56.3514 48.5274 56.3818 48.5274C57.2952 48.5274 58.0563 47.8272 58.1476 46.9139C58.2085 46.3964 58.2085 45.8788 58.2085 45.3613C58.2389 38.4201 54.0986 32.1487 47.7054 29.4087Z" fill="#00ACBD"></path></svg>