<svg xmlns="http://www.w3.org/2000/svg" width="46" height="44" viewBox="0 0 46 44" fill="none"><rect width="46" height="44" rx="5" fill="url(#paint0_linear)"></rect><path d="M31.0515 20.124C28.002 20.124 22.4234 19.9752 20.8615 19.9752C19.9689 19.9752 19.1507 19.9752 18.5557 19.9752C18.6301 19.6777 19.1507 16.7769 19.5226 15.1405C19.597 15.1405 20.1177 15.1405 20.8615 15.1405H21.9028C21.9028 15.1405 22.3491 15.1405 22.721 14.9917C22.7953 14.9917 23.0185 14.9174 23.0185 14.9174C23.6879 14.7686 24.3573 14.4711 24.9524 13.9504C25.473 13.5785 25.9937 13.1322 26.44 12.7603C26.2912 13.5041 26.0681 14.2479 25.9193 14.9174C25.9193 14.9917 25.8449 15.1405 25.8449 15.2149H30.8284C30.8284 15.2149 32.0929 15.3636 32.4648 14.1736C32.7623 13.4298 32.316 12.3884 30.9028 12.3884C30.4565 12.3884 29.9358 12.3884 29.2664 12.3884C29.4896 11.4959 29.6383 10.6033 29.8615 9.63636C30.0102 8.96694 29.8615 8.44628 29.3408 8.07438C29.192 8.07438 28.8945 8 28.6714 8C28.3739 8 28.002 8.14876 27.7044 8.3719C26.2168 9.56198 24.6549 10.6777 23.1673 11.8678C22.721 12.2397 22.2003 12.3884 21.6053 12.3884C21.754 12.3884 21.9028 12.3884 21.9772 12.3884C20.8615 12.3884 19.8945 12.3884 19.002 12.314C17.8119 12.314 16.8449 12.9091 16.6962 13.8017C16.3243 15.8843 15.5805 19.3802 15.5805 19.5289C14.9854 21.5372 16.3987 22.8017 18.1838 22.8017C18.8532 22.8017 19.7458 22.8017 20.7871 22.8017C22.6466 22.8017 26.5887 22.9504 29.4152 22.9504C29.0433 24.5124 28.6714 26.0744 28.3739 27.6364C28.3739 27.7107 28.3739 27.7851 28.2995 27.7851C28.1507 27.7851 28.0763 27.7851 28.002 27.7851H27.9276C27.8532 27.7851 27.7788 27.7851 27.7044 27.7851C27.4813 27.7851 27.035 27.7851 26.5144 27.7851C25.9937 27.7851 25.5474 27.7851 25.1011 27.7851H25.0268C23.7623 27.7851 22.721 28.157 21.754 28.9752C21.2334 29.3471 20.7127 29.7934 20.2664 30.1653C20.4152 29.4215 20.6383 28.6777 20.7871 28.0083C20.7871 27.9339 20.7871 27.9339 20.7871 27.8595H18.035C17.8119 27.8595 17.5144 27.8595 17.2912 27.8595H15.5805C15.5805 27.8595 14.9111 27.8595 14.3904 28.3058C13.6466 28.9752 14.1672 29.9422 14.316 30.0909C14.8367 30.4628 15.5061 30.686 16.2499 30.686C16.5474 30.686 16.9193 30.686 17.3656 30.686C17.2168 31.5041 16.9937 32.3967 16.7706 33.2149C16.6218 33.8843 16.7706 34.405 17.2912 34.7769C17.5144 34.9256 17.7375 35 18.035 35C18.3325 35 18.7044 34.8512 19.002 34.6281C20.4896 33.438 22.0515 32.3223 23.5392 31.1322C23.7623 30.9091 24.0598 30.7603 24.283 30.686C25.9193 30.686 27.2582 30.686 27.7788 30.686C27.8532 30.686 27.9276 30.686 28.002 30.686H28.0763C28.5226 30.686 28.8945 30.6859 29.3408 30.5372C30.5309 30.2397 30.9772 29.3471 31.2003 28.2314C31.5722 26.5207 32.3904 22.8017 32.3904 22.8017C32.3904 22.8017 33.283 20.124 31.0515 20.124ZM20.7871 15.1405C20.5639 15.1405 20.3408 15.1405 20.1177 15.1405C20.3408 15.1405 20.5639 15.1405 20.7871 15.1405Z" fill="white"></path><defs><linearGradient id="paint0_linear" x1="22.3548" y1="-19.744" x2="-19.9646" y2="24.499" gradientUnits="userSpaceOnUse"><stop stop-color="#16BAC5"></stop><stop offset="1" stop-color="#0184BB"></stop></linearGradient></defs></svg>