<svg xmlns="http://www.w3.org/2000/svg" width="321" height="72" viewBox="0 0 321 72" fill="none"><g clip-path="url(#clip0)"><path d="M99.223 55.9982C98.7927 55.9982 98.3912 55.8834 98.047 55.654C97.3873 55.2524 96.957 54.5067 96.957 53.7322V16.5016C96.957 15.2682 97.9609 14.2356 99.223 14.2356H104.128C104.988 14.2356 105.763 14.6946 106.136 15.469L106.193 15.5837C108.545 14.1783 111.213 13.4612 114.138 13.4612C118.871 13.4612 122.858 15.0674 125.984 18.2226C129.139 21.3777 130.717 25.3933 130.717 30.1547C130.717 34.9161 129.111 38.9318 125.956 42.1156C122.8 45.2994 118.814 46.9056 114.11 46.9056C112.245 46.9056 110.495 46.6188 108.832 46.0165V49.9461C108.832 50.8065 108.373 51.581 107.598 51.9539L100.198 55.7114C99.9401 55.9121 99.5672 55.9982 99.223 55.9982ZM99.5385 16.8171V53.1872L106.279 49.7453V41.9435L108.172 42.9187C109.979 43.8366 111.987 44.3242 114.167 44.3242C118.154 44.3242 121.51 42.9761 124.177 40.2799C126.845 37.6123 128.193 34.199 128.193 30.1547C128.193 26.1104 126.845 22.6971 124.206 20.0583C121.567 17.3908 118.183 16.0427 114.167 16.0427C111.241 16.0427 108.66 16.8745 106.48 18.4807L105.246 19.3986L103.927 16.7884H99.5385V16.8171ZM113.536 37.9852C111.299 37.9852 109.434 37.2395 108 35.7766C106.537 34.3138 105.791 32.4207 105.791 30.1834C105.791 28.7206 106.107 27.3725 106.767 26.1678C107.426 24.9631 108.344 24.0452 109.549 23.3568C110.754 22.6971 112.102 22.3529 113.565 22.3529C115.027 22.3529 116.375 22.6971 117.551 23.3568C118.756 24.0452 119.645 24.9631 120.334 26.1678C120.993 27.3725 121.338 28.7206 121.338 30.1834C121.338 32.4207 120.592 34.3138 119.129 35.7766C117.638 37.2395 115.744 37.9852 113.536 37.9852ZM113.565 24.9344C112.532 24.9344 111.614 25.1639 110.811 25.6228C110.037 26.0531 109.463 26.6267 109.033 27.4012C108.602 28.2043 108.373 29.1508 108.373 30.1834C108.373 31.761 108.832 32.9657 109.836 33.9696C110.811 34.9735 111.987 35.4324 113.536 35.4324C115.085 35.4324 116.289 34.9735 117.293 33.9696C118.297 32.9657 118.756 31.761 118.756 30.2121C118.756 29.1795 118.527 28.2616 118.068 27.4585C117.609 26.6554 117.035 26.0817 116.261 25.6515C115.486 25.1639 114.568 24.9344 113.565 24.9344Z" fill="#00ACBD"></path><path d="M146.779 46.8771C143.595 46.8771 140.67 46.16 138.088 44.7259C135.478 43.2917 133.384 41.2552 131.921 38.6737C130.459 36.1209 129.713 33.2813 129.713 30.1835C129.713 25.4221 131.348 21.4065 134.589 18.2227C137.802 15.0676 141.903 13.49 146.751 13.49C151.569 13.49 155.642 15.0962 158.855 18.2227C162.096 21.3778 163.731 25.3935 163.731 30.1835C163.731 34.9162 162.067 38.9319 158.826 42.1157C155.642 45.2708 151.569 46.8771 146.779 46.8771ZM146.779 16.0715C142.62 16.0715 139.15 17.4196 136.425 20.0871C133.7 22.7546 132.323 26.1392 132.323 30.1835C132.323 32.8224 132.954 35.2318 134.187 37.383C135.421 39.5342 137.17 41.2265 139.35 42.4599C141.559 43.6646 144.054 44.2956 146.779 44.2956C150.852 44.2956 154.323 42.9475 157.077 40.2513C159.83 37.5838 161.207 34.1705 161.207 30.1835C161.207 26.1392 159.83 22.7259 157.105 20.0871C154.38 17.4196 150.91 16.0715 146.779 16.0715ZM146.779 37.9853C145.661 37.9853 144.628 37.7846 143.682 37.4117C142.764 37.0388 141.932 36.4938 141.272 35.8341C140.612 35.1744 140.067 34.3139 139.695 33.3387C139.322 32.3635 139.15 31.3022 139.15 30.1835C139.15 27.8889 139.838 26.0532 141.272 24.5617C142.678 23.0988 144.513 22.3531 146.751 22.3531C148.988 22.3531 150.824 23.0988 152.229 24.5617C153.663 26.0532 154.352 27.8889 154.352 30.1835C154.352 32.4782 153.663 34.3139 152.229 35.8054C150.824 37.2683 148.988 37.9853 146.779 37.9853ZM143.137 26.3687C142.19 27.3439 141.731 28.5773 141.731 30.1835C141.731 30.9867 141.875 31.7324 142.133 32.4208C142.362 33.0518 142.706 33.5968 143.108 33.9984C143.538 34.4286 144.054 34.7728 144.685 35.031C145.288 35.2891 146.005 35.4039 146.779 35.4039C148.3 35.4039 149.447 34.9449 150.365 33.9984C151.311 33.0232 151.77 31.7898 151.77 30.1835C151.77 28.5486 151.34 27.3439 150.365 26.3687C149.447 25.3935 148.3 24.9632 146.751 24.9632C145.23 24.9345 144.083 25.3935 143.137 26.3687Z" fill="#00ACBD"></path><path d="M166.857 46.1315C166.398 46.1315 165.968 45.9881 165.566 45.7299C164.964 45.2997 164.591 44.6113 164.591 43.8655V6.6349C164.591 5.86046 164.992 5.14338 165.623 4.74182C166.283 4.31157 167.086 4.28289 167.803 4.59841L175.204 8.01169C176.007 8.38457 176.523 9.1877 176.523 10.0769V41.0259C176.523 41.9438 175.949 42.8043 175.089 43.1485L167.689 45.9881C167.402 46.0741 167.115 46.1315 166.857 46.1315ZM167.172 7.12252V43.3779L173.913 40.7678V10.249L167.172 7.12252Z" fill="#00ACBD"></path><path d="M188.714 15.1249H181.314C180.08 15.1249 179.048 14.121 179.048 12.859V8.69992C179.048 7.75338 179.65 6.92157 180.511 6.57738L187.911 3.85248C188.599 3.59434 189.374 3.68038 189.976 4.11063C190.579 4.54088 190.951 5.22927 190.951 5.97503V12.859C190.98 14.0923 189.976 15.1249 188.714 15.1249ZM181.658 12.5435H188.399V6.43396L181.658 8.92939V12.5435Z" fill="#00ACBD"></path><path d="M188.714 46.1312C188.513 46.1312 188.284 46.1025 188.083 46.0451L180.683 43.8652C179.736 43.5784 179.048 42.6892 179.048 41.6853V16.5016C179.048 15.2682 180.052 14.2356 181.314 14.2356H188.714C189.947 14.2356 190.98 15.2395 190.98 16.5016V43.8652C190.98 44.5823 190.636 45.242 190.062 45.6723C189.689 45.9591 189.202 46.1312 188.714 46.1312ZM181.658 41.4558L188.399 43.435V16.8171H181.658V41.4558Z" fill="#00ACBD"></path><path d="M212.319 46.8771C208.533 46.8771 205.005 45.9592 201.879 44.1809C198.724 42.3739 196.228 39.8497 194.45 36.6946C192.671 33.5395 191.782 30.0114 191.782 26.1966C191.782 20.3452 193.761 15.3544 197.662 11.3961C201.592 7.40918 206.525 5.40137 212.319 5.40137C217.167 5.40137 221.412 6.89289 224.969 9.81856C228.497 12.7442 230.763 16.6165 231.709 21.3492C231.852 22.0089 231.68 22.6973 231.25 23.2136C230.82 23.7299 230.189 24.0454 229.5 24.0454H221.813C220.838 24.0454 219.978 23.443 219.662 22.5252C219.289 21.4352 218.744 20.46 218.027 19.6569C217.339 18.8824 216.507 18.2801 215.532 17.8498C214.557 17.4196 213.467 17.2188 212.319 17.2188C209.91 17.2188 208.046 18.0219 206.439 19.7142C204.833 21.4352 204.03 23.5578 204.03 26.1679C204.03 28.7781 204.804 30.8719 206.439 32.5929C208.046 34.2852 209.91 35.0884 212.319 35.0884C214.155 35.0884 215.675 34.6007 216.966 33.5968C218.285 32.5642 219.175 31.1875 219.662 29.3804C219.949 28.4052 220.838 27.7455 221.842 27.7455H229.587C230.246 27.7455 230.906 28.0323 231.336 28.5486C231.766 29.0649 231.939 29.7533 231.824 30.413C230.935 35.3178 228.669 39.3048 225.112 42.3452C221.555 45.3282 217.253 46.8771 212.319 46.8771ZM212.319 7.95416C207.242 7.95416 202.911 9.70383 199.498 13.1745C196.085 16.6451 194.335 21.005 194.335 26.1679C194.335 29.5525 195.109 32.6503 196.687 35.4039C198.236 38.1574 200.416 40.366 203.141 41.9149C205.894 43.4925 208.963 44.2669 212.291 44.2669C216.593 44.2669 220.322 42.9475 223.391 40.3087C226.374 37.7559 228.324 34.3713 229.156 30.2696H222.043C221.354 32.5069 220.207 34.2565 218.515 35.576C216.765 36.9527 214.729 37.6125 212.291 37.6125C209.164 37.6125 206.64 36.5225 204.546 34.3139C202.452 32.1053 201.448 29.4378 201.448 26.1105C201.448 22.812 202.452 20.1158 204.546 17.8785C206.64 15.6412 209.164 14.5513 212.291 14.5513C213.811 14.5513 215.245 14.8381 216.536 15.4118C217.826 15.9854 218.974 16.8172 219.92 17.8785C220.809 18.8824 221.498 20.0584 221.986 21.3778H229.07C228.21 17.4196 226.259 14.1784 223.276 11.7116C220.265 9.2449 216.564 7.95416 212.319 7.95416Z" fill="#0083BA"></path><path d="M260.307 46.1315H252.907C251.673 46.1315 250.641 45.1276 250.641 43.8655V28.4627C250.641 26.541 250.268 25.6231 249.952 25.2215C249.838 25.0781 249.493 24.6192 248.145 24.6192C246.941 24.6192 246.08 24.9921 245.392 25.7665C244.646 26.627 244.273 27.8891 244.273 29.4953V43.8942C244.273 45.1276 243.269 46.1602 242.007 46.1602H234.607C233.373 46.1602 232.341 45.1563 232.341 43.8942V6.6349C232.341 5.86046 232.742 5.14338 233.373 4.74182C234.033 4.31157 234.836 4.28289 235.553 4.59841L242.954 8.01169C243.757 8.38457 244.273 9.1877 244.273 10.0769V14.8096C246.08 14.0065 248.088 13.5762 250.268 13.5762C254.054 13.5762 257.094 14.8669 259.332 17.4484C261.483 19.9152 262.573 23.2137 262.573 27.2294V43.8369C262.544 45.0989 261.54 46.1315 260.307 46.1315ZM253.222 43.55H259.963V27.258C259.963 23.8734 259.073 21.1485 257.352 19.1694C255.631 17.1903 253.251 16.1864 250.239 16.1864C247.744 16.1864 245.535 16.8174 243.671 18.1081L241.663 19.4849V10.3063L234.922 7.17988V43.5787H241.663V29.524C241.663 27.258 242.265 25.4223 243.413 24.1029C244.589 22.7548 246.166 22.0664 248.117 22.0664C249.866 22.0664 251.186 22.6114 251.989 23.7013C252.792 24.7913 253.193 26.3402 253.193 28.4914V43.55H253.222Z" fill="#0083BA"></path><path d="M279.639 46.8771C274.906 46.8771 270.919 45.2708 267.764 42.087C264.638 38.9032 263.031 34.8876 263.031 30.1262C263.031 25.3935 264.638 21.4065 267.764 18.2514C270.919 15.0962 274.906 13.49 279.61 13.49C282.45 13.49 285.06 14.1497 287.355 15.4404C287.727 14.666 288.502 14.1784 289.391 14.1784H294.898C296.132 14.1784 297.164 15.1823 297.164 16.4443V43.808C297.164 45.0414 296.16 46.074 294.898 46.074H289.104C288.301 46.074 287.613 45.6724 287.182 45.0127C284.945 46.2461 282.392 46.8771 279.639 46.8771ZM279.639 16.0715C275.623 16.0715 272.239 17.4196 269.6 20.0871C266.961 22.7546 265.613 26.1392 265.613 30.1549C265.613 34.1992 266.961 37.6125 269.6 40.28C272.239 42.9475 275.623 44.3243 279.639 44.3243C282.45 44.3243 285.002 43.5498 287.182 42.0296L288.731 40.9684L289.362 43.5212H294.611V16.7885H289.649L288.789 19.5421L287.326 18.4808C285.146 16.8746 282.536 16.0715 279.639 16.0715ZM280.212 37.9566C277.975 37.9566 276.111 37.2109 274.677 35.7194C273.214 34.2565 272.468 32.3635 272.468 30.1262C272.468 28.6633 272.812 27.3152 273.472 26.1392C274.16 24.9345 275.049 24.0167 276.254 23.3283C277.43 22.6399 278.778 22.2957 280.241 22.2957C282.45 22.2957 284.314 23.0415 285.777 24.5043C287.24 25.9671 287.986 27.8602 287.986 30.0975C287.986 32.3348 287.24 34.2279 285.777 35.6907C284.314 37.2109 282.45 37.9566 280.212 37.9566ZM280.241 24.9059C279.237 24.9059 278.319 25.1353 277.545 25.5942C276.77 26.0532 276.168 26.6555 275.709 27.43C275.279 28.2044 275.049 29.1223 275.049 30.1262C275.049 31.7037 275.508 32.9084 276.512 33.9123C277.488 34.9162 278.664 35.3752 280.212 35.3752C281.761 35.3752 282.966 34.9162 283.97 33.9123C284.974 32.9084 285.433 31.7037 285.433 30.1549C285.433 28.606 284.974 27.3726 283.97 26.3974C282.966 25.3648 281.79 24.9059 280.241 24.9059Z" fill="#0083BA"></path><path d="M318.734 46.1312H313.513C311.161 46.1312 309.067 45.6436 307.26 44.697C305.396 43.7218 303.933 42.259 302.958 40.3946C302.011 38.6162 301.524 36.4937 301.524 34.0843V24.7049H298.827C297.594 24.7049 296.562 23.701 296.562 22.439V20.8614C296.562 20.2877 296.791 19.7427 297.164 19.3125L308.006 7.81058C308.436 7.35165 309.039 7.09351 309.641 7.09351H311.018C312.251 7.09351 313.284 8.09741 313.284 9.35947V14.2356H318.561C319.795 14.2356 320.827 15.2395 320.827 16.5016V22.439C320.827 23.6723 319.824 24.7049 318.561 24.7049H313.427V33.1377C313.427 34.1703 313.743 34.4858 313.857 34.6006C313.972 34.7153 314.288 35.0308 315.378 35.0308H318.734C319.967 35.0308 321 36.0347 321 37.2968V43.8939C321 45.0986 319.996 46.1312 318.734 46.1312ZM299.172 22.1234H304.134V34.0843C304.134 36.0347 304.507 37.7557 305.253 39.1899C305.998 40.5953 307.088 41.6853 308.494 42.4311C309.899 43.1768 311.591 43.5497 313.542 43.5497H318.447V37.6123H315.435C313.972 37.6123 312.882 37.2394 312.079 36.4363C311.305 35.6619 310.903 34.5432 310.903 33.1377V22.1234H318.303V16.8171H310.76V9.67498H309.842L299.172 20.9761V22.1234Z" fill="#0083BA"></path><path d="M3.99339 56.7153C3.01817 56.7153 2.07162 56.3424 1.35455 55.6254C0.350641 54.6215 0.00644428 53.1873 0.43669 51.8392L3.59183 42.0009C1.41191 37.9566 0.264592 33.3673 0.264592 28.7493C0.264592 13.3178 12.8278 0.754639 28.2593 0.754639C35.2579 0.754639 41.9411 3.33612 47.0754 8.04014C52.2096 12.6868 55.3934 19.0544 56.0818 25.9097C56.1679 26.8276 55.5082 27.6594 54.5616 27.7454C53.6438 27.8315 52.812 27.1718 52.7259 26.2252C52.1236 20.2018 49.3126 14.6086 44.8094 10.5069C40.2775 6.40521 34.3974 4.13924 28.2593 4.13924C14.6922 4.13924 3.64919 15.1822 3.64919 28.7493C3.64919 33.0518 4.76783 37.2969 6.91906 40.997C7.14853 41.3986 7.20589 41.9149 7.06248 42.3451L3.67788 52.8718C3.64919 53.0152 3.67788 53.1586 3.76393 53.2447C3.84998 53.3307 3.99339 53.3881 4.13681 53.3307L14.6635 49.9461C15.1224 49.8027 15.61 49.8601 16.0116 50.0895C19.7117 52.2121 23.9568 53.3594 28.2593 53.3594C29.0337 53.3594 29.8368 53.3307 30.6113 53.2447C31.5291 53.1586 32.3609 53.847 32.447 54.7649C32.533 55.6827 31.8446 56.5145 30.9268 56.6006C30.0376 56.6866 29.1484 56.7153 28.2593 56.7153C23.6126 56.7153 19.052 55.568 14.979 53.3594L5.14071 56.5145C4.76783 56.658 4.39495 56.7153 3.99339 56.7153ZM36.6634 55.3672C35.9463 55.3672 35.3153 54.9083 35.0572 54.2199C34.7703 53.3307 35.2293 52.3842 36.1184 52.0687C45.0675 49.0569 51.5499 41.0544 52.6686 31.7037C52.7833 30.7858 53.6151 30.1261 54.533 30.2408C55.4508 30.3556 56.1105 31.1874 55.9958 32.1052C54.7337 42.7467 47.3335 51.8392 37.1797 55.2525C37.0363 55.3385 36.8355 55.3672 36.6634 55.3672Z" fill="#00ACBD"></path><path d="M72.6905 71.7452C72.3463 71.7452 72.0021 71.6878 71.6866 71.5731L64.1716 69.1637C60.9878 70.856 57.4024 71.7452 53.7883 71.7452C44.6671 71.7452 36.5785 66.2954 33.1939 57.8339C32.8497 56.9734 33.2513 55.9982 34.1404 55.6253C35.0009 55.2811 35.9762 55.6827 36.349 56.5718C39.246 63.7426 46.1013 68.3606 53.817 68.3606C57.1156 68.3606 60.3568 67.5001 63.1964 65.8652C63.5979 65.6357 64.1143 65.5783 64.5445 65.7217L72.6044 68.3032L70.023 60.2433C69.8795 59.7843 69.9369 59.2967 70.1664 58.8952C71.8013 56.0555 72.6618 52.8144 72.6618 49.5158C72.6618 40.4233 66.2081 32.6501 57.2877 30.9865C56.3698 30.8144 55.7675 29.9253 55.9396 29.0074C56.1117 28.0895 57.0008 27.4872 57.9187 27.6593C68.4167 29.6097 76.0464 38.7883 76.0464 49.4871C76.0464 53.1012 75.1572 56.6866 73.4649 59.8704L75.8743 67.3854C76.2472 68.5614 75.9604 69.8521 75.0712 70.7126C74.3828 71.4297 73.551 71.7452 72.6905 71.7452ZM33.3086 52.9578C32.4481 52.9578 31.7024 52.2981 31.6163 51.4089C31.559 50.7779 31.5303 50.1468 31.5303 49.5158C31.5303 38.2147 39.9631 28.7492 51.1782 27.4585C52.096 27.3438 52.9278 28.0035 53.0426 28.95C53.1573 29.8679 52.4976 30.7284 51.5511 30.8144C42.057 31.9044 34.9149 39.9356 34.9149 49.5158C34.9149 50.0608 34.9436 50.5771 34.9722 51.1221C35.0583 52.0399 34.3699 52.8717 33.4234 52.9578C33.3947 52.9578 33.366 52.9578 33.3086 52.9578Z" fill="#0083BA"></path><path d="M18.2213 31.9332C19.7421 31.9332 20.9749 30.7004 20.9749 29.1796C20.9749 27.6588 19.7421 26.426 18.2213 26.426C16.7006 26.426 15.4678 27.6588 15.4678 29.1796C15.4678 30.7004 16.7006 31.9332 18.2213 31.9332Z" fill="#00ACBD"></path><path d="M27.6579 31.9332C29.1786 31.9332 30.4114 30.7004 30.4114 29.1796C30.4114 27.6588 29.1786 26.426 27.6579 26.426C26.1371 26.426 24.9043 27.6588 24.9043 29.1796C24.9043 30.7004 26.1371 31.9332 27.6579 31.9332Z" fill="#00ACBD"></path><path d="M37.4674 31.9332C38.9882 31.9332 40.221 30.7004 40.221 29.1796C40.221 27.6588 38.9882 26.426 37.4674 26.426C35.9467 26.426 34.7139 27.6588 34.7139 29.1796C34.7139 30.7004 35.9467 31.9332 37.4674 31.9332Z" fill="#00ACBD"></path><path d="M54.0465 50.8353C55.5673 50.8353 56.8001 49.6025 56.8001 48.0817C56.8001 46.5609 55.5673 45.3281 54.0465 45.3281C52.5258 45.3281 51.293 46.5609 51.293 48.0817C51.293 49.6025 52.5258 50.8353 54.0465 50.8353Z" fill="#0083BA"></path><path d="M63.8854 50.8353C65.4062 50.8353 66.639 49.6025 66.639 48.0817C66.639 46.5609 65.4062 45.3281 63.8854 45.3281C62.3647 45.3281 61.1318 46.5609 61.1318 48.0817C61.1318 49.6025 62.3647 50.8353 63.8854 50.8353Z" fill="#0083BA"></path></g><defs><clipPath id="clip0"><rect width="320.734" height="70.9906" fill="white" transform="translate(0.265625 0.754639)"></rect></clipPath></defs></svg>