<svg xmlns="http://www.w3.org/2000/svg" width="54" height="50" viewBox="0 0 54 50" fill="none"><path fill-rule="evenodd" clip-rule="evenodd" d="M26.5357 22.2656C30.1261 25.4729 32.1895 30.0576 32.1895 34.8479C32.1895 35.7936 32.107 36.7599 31.9212 37.7056C31.8387 38.1579 31.9625 38.6102 32.2514 38.9597C32.5403 39.3092 32.953 39.5148 33.4069 39.5354C33.6545 39.5559 33.9021 39.5559 34.1498 39.5559C37.6163 39.5559 41.0416 38.6308 44.0336 36.9243L44.3638 36.7393L51.4826 39.0419C52.0397 39.2064 52.6588 39.0625 53.0715 38.6513C53.5048 38.2401 53.6492 37.6234 53.4635 37.0683L51.1731 29.9548L51.3588 29.6258C53.0921 26.6447 54 23.2319 54 19.778C54 8.86102 45.086 0 34.1498 0C29.1356 0 24.3278 1.89145 20.6549 5.28372C17.5185 8.20312 15.4344 11.9449 14.6503 16.1184C14.5678 16.5707 14.6709 17.023 14.9598 17.3725C15.2487 17.722 15.6614 17.9482 16.1153 17.9688C18.7565 18.1127 21.2533 18.8322 23.5437 20.1275C23.8326 20.2919 24.1627 20.3536 24.4723 20.3125C24.431 20.1686 24.4104 20.0041 24.4104 19.8602C24.4104 18.8528 25.2357 18.051 26.2262 18.051C27.2373 18.051 28.042 18.8528 28.042 19.8602C28.042 20.8676 27.2166 21.6694 26.2262 21.6694H26.123C26.2055 21.8956 26.35 22.1012 26.5357 22.2656ZM43.9304 19.8808C43.9304 20.8882 43.1051 21.69 42.1146 21.69C41.1242 21.69 40.2988 20.8882 40.2988 19.8808C40.2988 18.8734 41.1242 18.0715 42.1146 18.0715C43.1257 18.0715 43.9304 18.8734 43.9304 19.8808ZM36.4195 19.8808C36.4195 20.8882 35.5942 21.69 34.6037 21.69C33.6133 21.69 32.7879 20.8882 32.7879 19.8808C32.7879 18.8734 33.5926 18.0715 34.6037 18.0715C35.6148 18.0715 36.4195 18.8734 36.4195 19.8808Z" fill="url(#paint0_linear)"></path><path d="M14.3815 21.3816C14.3403 20.9293 14.5054 20.4975 14.8149 20.1686C15.1244 19.8396 15.5783 19.6752 16.0323 19.6957C24.121 20.1069 30.4557 26.7681 30.4557 34.8479C30.4557 35.7113 30.3732 36.5748 30.2287 37.4178C30.1462 37.8701 29.8779 38.2607 29.5065 38.4868C29.2589 38.6308 28.97 38.713 28.6811 38.713C28.5161 38.713 28.3716 38.6924 28.2066 38.6308C20.5925 36.2459 15.0418 29.3174 14.3815 21.3816Z" fill="url(#paint1_linear)"></path><path fill-rule="evenodd" clip-rule="evenodd" d="M2.20787 42.722L2.02217 42.3931C0.701568 40.111 0 37.5 0 34.8479C0 31.2089 1.3206 27.6933 3.69355 24.9383C5.55064 22.8002 7.94422 21.2171 10.6267 20.3742C11.0806 20.2303 11.5759 20.2919 11.9679 20.5592C12.36 20.8265 12.6282 21.2377 12.6695 21.7105C12.9996 25.3289 14.2583 28.8035 16.3011 31.8051C15.5996 32.0518 15.0837 32.7097 15.0837 33.5115C15.0837 34.4984 15.8884 35.3207 16.8995 35.3207C17.5392 35.3207 18.117 34.9712 18.4265 34.4572C20.9232 37.1094 24.039 39.0831 27.5056 40.2138C27.9595 40.3577 28.3103 40.7072 28.4754 41.139C28.6405 41.5707 28.5992 42.0847 28.3722 42.4753C27.2373 44.4079 25.7104 46.0321 23.8533 47.3273C21.2946 49.0748 18.3233 50 15.2075 50C12.5457 50 9.92512 49.301 7.63471 47.9852L7.30456 47.8002L2.68246 49.2804C2.12534 49.4655 1.50631 49.3215 1.09362 48.8898C0.680933 48.4786 0.536493 47.8618 0.701568 47.3067L2.20787 42.722ZM8.52198 35.3207C9.51243 35.3207 10.3378 34.5189 10.3378 33.5115C10.3378 32.5041 9.53307 31.7023 8.52198 31.7023C7.53154 31.7023 6.70616 32.5041 6.70616 33.5115C6.70616 34.5189 7.5109 35.3207 8.52198 35.3207Z" fill="url(#paint2_linear)"></path><defs><linearGradient id="paint0_linear" x1="26.2425" y1="-22.4364" x2="-21.753" y2="29.3988" gradientUnits="userSpaceOnUse"><stop stop-color="#16BAC5"></stop><stop offset="1" stop-color="#0184BB"></stop></linearGradient><linearGradient id="paint1_linear" x1="26.2425" y1="-22.4364" x2="-21.753" y2="29.3988" gradientUnits="userSpaceOnUse"><stop stop-color="#16BAC5"></stop><stop offset="1" stop-color="#0184BB"></stop></linearGradient><linearGradient id="paint2_linear" x1="26.2425" y1="-22.4364" x2="-21.753" y2="29.3988" gradientUnits="userSpaceOnUse"><stop stop-color="#16BAC5"></stop><stop offset="1" stop-color="#0184BB"></stop></linearGradient></defs></svg>