<svg xmlns="http://www.w3.org/2000/svg" width="45" height="45" viewBox="0 0 45 45" fill="none"><path fill-rule="evenodd" clip-rule="evenodd" d="M22.4944 0H22.5056C34.9116 0 45 10.0941 45 22.5C45 34.9059 34.9116 45 22.5056 45C17.9297 45 13.6856 43.6388 10.1278 41.2819L1.47938 44.0466L4.28344 35.6878C1.58625 31.9837 0 27.4219 0 22.5C0 10.0912 10.0884 0 22.4944 0ZM31.1821 34.9477C32.9005 34.5765 35.0549 33.3052 35.5977 31.7724C36.1405 30.2368 36.1405 28.929 35.983 28.6506C35.8559 28.4296 35.5551 28.2849 35.1062 28.0687C34.9893 28.0124 34.8624 27.9513 34.7259 27.8827C34.0649 27.5537 30.8502 25.9646 30.2427 25.7537C29.6465 25.5287 29.0784 25.6074 28.6284 26.2431C28.5428 26.3629 28.4574 26.483 28.3725 26.6024C27.8296 27.3659 27.3059 28.1024 26.8706 28.5718C26.474 28.9937 25.8271 29.0471 25.2843 28.8221C25.2251 28.7974 25.1573 28.7701 25.0813 28.7394C24.2219 28.3923 22.3156 27.6223 20.0081 25.5681C18.0618 23.8356 16.7399 21.6784 16.3574 21.0315C15.9819 20.3826 16.3058 20.0021 16.6052 19.6504C16.6107 19.6439 16.6163 19.6374 16.6218 19.6309C16.8148 19.392 17.0021 19.1932 17.1904 18.9933C17.3258 18.8496 17.4617 18.7053 17.6005 18.5452C17.6212 18.5215 17.6412 18.4984 17.6608 18.476C17.9556 18.137 18.1312 17.9351 18.329 17.5131C18.554 17.0771 18.3937 16.6271 18.2334 16.2952C18.1231 16.0628 17.4417 14.4096 16.8567 12.9904C16.6065 12.3831 16.3738 11.8187 16.2112 11.4268C15.7752 10.3834 15.4434 10.344 14.7824 10.3159C14.7622 10.3149 14.7417 10.3138 14.721 10.3128C14.5121 10.3022 14.282 10.2906 14.0287 10.2906C13.1681 10.2906 12.2709 10.5437 11.7281 11.0977C11.7091 11.1171 11.6893 11.1372 11.6688 11.1581C10.9744 11.8643 9.42743 13.4376 9.42743 16.5737C9.42743 19.7158 11.6569 22.7568 12.0694 23.3194C12.0808 23.3349 12.0908 23.3486 12.0993 23.3602C12.1241 23.3928 12.1709 23.4606 12.239 23.5592C13.0813 24.779 17.1838 30.7201 23.3015 33.2546C28.4709 35.3977 30.0065 35.1981 31.1821 34.9477Z" fill="#00C48C"></path></svg>